<svg width="47" height="50" viewBox="0 0 47 50" fill="none" xmlns="http://www.w3.org/2000/svg">
<path d="M20.7836 0L20.4991 21.8446H14.6047V13.3252H6.17891V21.8446H0V0H6.17891V8.20734H14.6047V0H20.7836Z" fill="white"/>
<path d="M26.2635 32.7669C24.0431 32.7669 22.0426 32.2968 20.2623 31.3566C18.5019 30.4164 17.1116 29.1162 16.0914 27.4558C15.0912 25.7955 14.5911 23.9251 14.5911 21.8446C14.5911 19.7642 15.0912 17.8938 16.0914 16.2334C17.1116 14.5731 18.5019 13.2728 20.2623 12.3326C22.0426 11.3924 24.0431 10.9223 26.2635 10.9223C28.484 10.9223 30.4744 11.3924 32.2348 12.3326C34.0152 13.2728 35.4055 14.5731 36.4057 16.2334C37.4259 17.8938 37.936 19.7642 37.936 21.8446C37.936 23.9251 37.4259 25.7955 36.4057 27.4558C35.4055 29.1162 34.0152 30.4164 32.2348 31.3566C30.4744 32.2968 28.484 32.7669 26.2635 32.7669ZM26.2635 27.8459C27.3238 27.8459 28.284 27.5958 29.1441 27.0957C30.0043 26.5956 30.6845 25.8955 31.1846 24.9953C31.6847 24.0751 31.9347 23.0249 31.9347 21.8446C31.9347 20.6644 31.6847 19.6241 31.1846 18.724C30.6845 17.8038 30.0043 17.0936 29.1441 16.5935C28.284 16.0934 27.3238 15.8433 26.2635 15.8433C25.2033 15.8433 24.2431 16.0934 23.3829 16.5935C22.5227 17.0936 21.8426 17.8038 21.3425 18.724C20.8424 19.6241 20.5923 20.6644 20.5923 21.8446C20.5923 23.0249 20.8424 24.0751 21.3425 24.9953C21.8426 25.8955 22.5227 26.5956 23.3829 27.0957C24.2431 27.5958 25.2033 27.8459 26.2635 27.8459Z" fill="white"/>
<path d="M33.8912 32.7406H26.7004L27.1818 27.8412H46.7484V32.7406H40.0701V49.6858H33.8912V32.7406Z" fill="white"/>
</svg>
